ffmpeg started on 2025-05-25 at 18:54:07
Report written to "D:\Convert\FFMetrics\reports\ssim_report-6.txt"
Log level: 32
Command line:
ffmpeg -hide_banner -nostdin -i "G:\\\xc0\xed\xe8\xec\xe5\\\xce\xed\xe3\xee\xe8\xed\xe3\xe8\\!_34_\xc2\xe5\xf1\xed\xe0_2024\\JamClub\\\xc1\xee\xf0\xfc\xe1\xe0 \xe2 \xef\xf0\xff\xec\xee\xec \xfd\xf4\xe8\xf0\xe5\\[JAM_CLUB]_Kenka_Dokugaku_04_[1080p][RUS][DUB]_HEVC.mkv" -i "G:\\\xc0\xed\xe8\xec\xe5\\\xce\xed\xe3\xee\xe8\xed\xe3\xe8\\!_34_\xc2\xe5\xf1\xed\xe0_2024\\JamClub\\\xc1\xee\xf0\xfc\xe1\xe0 \xe2 \xef\xf0\xff\xec\xee\xec \xfd\xf4\xe8\xf0\xe5\\[JAM_CLUB]_Kenka_Dokugaku_04_[1080p][RUS][DUB].mp4" -lavfi "[0:v]settb=AVTB,setpts=PTS-STARTPTS,format=pix_fmts=yuv420p10,fps=24000/1001,scale=1920:1080:flags=bicubic[main];[1:v]settb=AVTB,setpts=PTS-STARTPTS,format=pix_fmts=yuv420p,fps=24000/1001,scale=1920:1080:flags=bicubic[ref];[main][ref]ssim=eof_action=endall:stats_file='D\\:/Convert/FFMetrics/logs/ssim_logfile-6.txt'" -f null -
Input #0, matroska,webm, from 'G:\Аниме\Онгоинги\!_34_Весна_2024\JamClub\Борьба в прямом эфире\[JAM_CLUB]_Kenka_Dokugaku_04_[1080p][RUS][DUB]_HEVC.mkv':
  Metadata:
    COMPATIBLE_BRANDS: isomiso2avc1mp41
    MAJOR_BRAND     : isom
    MINOR_VERSION   : 512
    ENCODER         : Lavf61.7.100
  Duration: 00:23:17.27, start: -0.001000, bitrate: 1514 kb/s
  Stream #0:0: Video: hevc (Main 10), yuv420p10le(tv, bt709, progressive), 1920x1080 [SAR 1:1 DAR 16:9], 23.98 fps, 23.98 tbr, 1k tbn (default)
      Metadata:
        HANDLER_NAME    : VideoHandler
        VENDOR_ID       : [0][0][0][0]
        ENCODER         : Lavc61.19.100 libx265
        BPS             : 1315469
        DURATION        : 00:23:17.145708333
        NUMBER_OF_FRAMES: 33499
        NUMBER_OF_BYTES : 229737727
        _STATISTICS_WRITING_APP: mkvpropedit v66.0.0 ('Josie') 64-bit
        _STATISTICS_WRITING_DATE_UTC: 2025-05-25 13:18:02
        _STATISTICS_TAGS: BPS DURATION NUMBER_OF_FRAMES NUMBER_OF_BYTES
  Stream #0:1(eng): Audio: aac (LC), 48000 Hz, stereo, fltp (default)
      Metadata:
        HANDLER_NAME    : SoundHandler
        VENDOR_ID       : [0][0][0][0]
        ENCODER         : Lavc61.19.100 aac
        BPS             : 195219
        DURATION        : 00:23:17.229000000
        NUMBER_OF_FRAMES: 65496
        NUMBER_OF_BYTES : 34095721
        _STATISTICS_WRITING_APP: mkvpropedit v66.0.0 ('Josie') 64-bit
        _STATISTICS_WRITING_DATE_UTC: 2025-05-25 13:18:02
        _STATISTICS_TAGS: BPS DURATION NUMBER_OF_FRAMES NUMBER_OF_BYTES
Input #1, mov,mp4,m4a,3gp,3g2,mj2, from 'G:\Аниме\Онгоинги\!_34_Весна_2024\JamClub\Борьба в прямом эфире\[JAM_CLUB]_Kenka_Dokugaku_04_[1080p][RUS][DUB].mp4':
  Metadata:
    major_brand     : isom
    minor_version   : 512
    compatible_brands: isomiso2avc1mp41
    encoder         : Lavf60.16.100
  Duration: 00:23:17.25, start: 0.000000, bitrate: 4617 kb/s
  Stream #1:0[0x1](und): Video: h264 (High) (avc1 / 0x31637661), yuv420p(progressive), 1920x1080, 4419 kb/s, 23.98 fps, 23.98 tbr, 90k tbn (default)
      Metadata:
        handler_name    : VideoHandler
        vendor_id       : [0][0][0][0]
  Stream #1:1[0x2](eng): Audio: aac (LC) (mp4a / 0x6134706D), 48000 Hz, stereo, fltp, 191 kb/s (default)
      Metadata:
        handler_name    : SoundHandler
        vendor_id       : [0][0][0][0]
Stream mapping:
  Stream #0:0 (hevc) -> settb:default
  Stream #1:0 (h264) -> settb:default
  ssim:default -> Stream #0:0 (wrapped_avframe)
  Stream #0:1 -> #0:1 (aac (native) -> pcm_s16le (native))
Output #0, null, to 'pipe:':
  Metadata:
    COMPATIBLE_BRANDS: isomiso2avc1mp41
    MAJOR_BRAND     : isom
    MINOR_VERSION   : 512
    encoder         : Lavf61.7.100
  Stream #0:0: Video: wrapped_avframe, yuv420p10le(tv, bt709, progressive), 1920x1080 [SAR 1:1 DAR 16:9], q=2-31, 200 kb/s, 23.98 fps, 23.98 tbn
      Metadata:
        encoder         : Lavc61.19.100 wrapped_avframe
  Stream #0:1(eng): Audio: pcm_s16le, 48000 Hz, stereo, s16, 1536 kb/s (default)
      Metadata:
        HANDLER_NAME    : SoundHandler
        VENDOR_ID       : [0][0][0][0]
        _STATISTICS_TAGS: BPS DURATION NUMBER_OF_FRAMES NUMBER_OF_BYTES
        BPS             : 195219
        DURATION        : 00:23:17.229000000
        NUMBER_OF_FRAMES: 65496
        NUMBER_OF_BYTES : 34095721
        _STATISTICS_WRITING_APP: mkvpropedit v66.0.0 ('Josie') 64-bit
        _STATISTICS_WRITING_DATE_UTC: 2025-05-25 13:18:02
        encoder         : Lavc61.19.100 pcm_s16le
frame=  109 fps=0.0 q=-0.0 size=N/A time=00:00:04.54 bitrate=N/A speed=8.74x    frame=  269 fps=261 q=-0.0 size=N/A time=00:00:11.21 bitrate=N/A speed=10.9x    frame=  463 fps=300 q=-0.0 size=N/A time=00:00:19.31 bitrate=N/A speed=12.5x    frame=  701 fps=340 q=-0.0 size=N/A time=00:00:29.23 bitrate=N/A speed=14.2x    frame=  886 fps=345 q=-0.0 size=N/A time=00:00:36.95 bitrate=N/A speed=14.4x    frame= 1106 fps=358 q=-0.0 size=N/A time=00:00:46.12 bitrate=N/A speed=14.9x    frame= 1346 fps=372 q=-0.0 size=N/A time=00:00:56.13 bitrate=N/A speed=15.5x    frame= 1537 fps=373 q=-0.0 size=N/A time=00:01:04.10 bitrate=N/A speed=15.6x    frame= 1744 fps=376 q=-0.0 size=N/A time=00:01:12.73 bitrate=N/A speed=15.7x    frame= 1979 fps=384 q=-0.0 size=N/A time=00:01:22.54 bitrate=N/A speed=  16x    frame= 2171 fps=382 q=-0.0 size=N/A time=00:01:30.54 bitrate=N/A speed=15.9x    frame= 2381 fps=385 q=-0.0 size=N/A time=00:01:39.30 bitrate=N/A speed=  16x    frame= 2598 fps=388 q=-0.0 size=N/A time=00:01:48.35 bitrate=N/A speed=16.2x    frame= 2840 fps=393 q=-0.0 size=N/A time=00:01:58.45 bitrate=N/A speed=16.4x    frame= 3049 fps=394 q=-0.0 size=N/A time=00:02:07.16 bitrate=N/A speed=16.4x    frame= 3204 fps=389 q=-0.0 size=N/A time=00:02:13.63 bitrate=N/A speed=16.2x    frame= 3360 fps=383 q=-0.0 size=N/A time=00:02:20.14 bitrate=N/A speed=  16x    frame= 3529 fps=380 q=-0.0 size=N/A time=00:02:27.18 bitrate=N/A speed=15.9x    frame= 3776 fps=385 q=-0.0 size=N/A time=00:02:37.49 bitrate=N/A speed=16.1x    frame= 4039 fps=392 q=-0.0 size=N/A time=00:02:48.45 bitrate=N/A speed=16.3x    frame= 4295 fps=397 q=-0.0 size=N/A time=00:02:59.13 bitrate=N/A speed=16.5x    frame= 4553 fps=402 q=-0.0 size=N/A time=00:03:09.89 bitrate=N/A speed=16.8x    frame= 4811 fps=406 q=-0.0 size=N/A time=00:03:20.65 bitrate=N/A speed=16.9x    frame= 5085 fps=411 q=-0.0 size=N/A time=00:03:32.08 bitrate=N/A speed=17.1x    frame= 5374 fps=417 q=-0.0 size=N/A time=00:03:44.14 bitrate=N/A speed=17.4x    frame= 5636 fps=420 q=-0.0 size=N/A time=00:03:55.06 bitrate=N/A speed=17.5x    frame= 5879 fps=422 q=-0.0 size=N/A time=00:04:05.20 bitrate=N/A speed=17.6x    frame= 6130 fps=425 q=-0.0 size=N/A time=00:04:15.67 bitrate=N/A speed=17.7x    frame= 6401 fps=428 q=-0.0 size=N/A time=00:04:26.97 bitrate=N/A speed=17.9x    frame= 6624 fps=428 q=-0.0 size=N/A time=00:04:36.27 bitrate=N/A speed=17.9x    frame= 6844 fps=428 q=-0.0 size=N/A time=00:04:45.45 bitrate=N/A speed=17.9x    frame= 7045 fps=427 q=-0.0 size=N/A time=00:04:53.83 bitrate=N/A speed=17.8x    frame= 7259 fps=427 q=-0.0 size=N/A time=00:05:02.76 bitrate=N/A speed=17.8x    frame= 7522 fps=429 q=-0.0 size=N/A time=00:05:13.73 bitrate=N/A speed=17.9x    frame= 7721 fps=428 q=-0.0 size=N/A time=00:05:22.03 bitrate=N/A speed=17.9x    frame= 7918 fps=427 q=-0.0 size=N/A time=00:05:30.24 bitrate=N/A speed=17.8x    frame= 8186 fps=429 q=-0.0 size=N/A time=00:05:41.42 bitrate=N/A speed=17.9x    frame= 8368 fps=427 q=-0.0 size=N/A time=00:05:49.01 bitrate=N/A speed=17.8x    frame= 8618 fps=429 q=-0.0 size=N/A time=00:05:59.44 bitrate=N/A speed=17.9x    frame= 8885 fps=431 q=-0.0 size=N/A time=00:06:10.57 bitrate=N/A speed=  18x    frame= 9158 fps=433 q=-0.0 size=N/A time=00:06:21.96 bitrate=N/A speed=18.1x    frame= 9402 fps=434 q=-0.0 size=N/A time=00:06:32.14 bitrate=N/A speed=18.1x    frame= 9620 fps=434 q=-0.0 size=N/A time=00:06:41.23 bitrate=N/A speed=18.1x    frame= 9815 fps=433 q=-0.0 size=N/A time=00:06:49.36 bitrate=N/A speed=  18x    frame= 9975 fps=430 q=-0.0 size=N/A time=00:06:56.04 bitrate=N/A speed=17.9x    frame=10170 fps=429 q=-0.0 size=N/A time=00:07:04.17 bitrate=N/A speed=17.9x    frame=10436 fps=431 q=-0.0 size=N/A time=00:07:15.26 bitrate=N/A speed=  18x    frame=10729 fps=433 q=-0.0 size=N/A time=00:07:27.48 bitrate=N/A speed=18.1x    frame=11001 fps=435 q=-0.0 size=N/A time=00:07:38.83 bitrate=N/A speed=18.2x    frame=11263 fps=437 q=-0.0 size=N/A time=00:07:49.76 bitrate=N/A speed=18.2x    frame=11489 fps=437 q=-0.0 size=N/A time=00:07:59.18 bitrate=N/A speed=18.2x    frame=11716 fps=437 q=-0.0 size=N/A time=00:08:08.65 bitrate=N/A speed=18.2x    frame=11980 fps=438 q=-0.0 size=N/A time=00:08:19.66 bitrate=N/A speed=18.3x    frame=12206 fps=438 q=-0.0 size=N/A time=00:08:29.09 bitrate=N/A speed=18.3x    frame=12463 fps=439 q=-0.0 size=N/A time=00:08:39.81 bitrate=N/A speed=18.3x    frame=12714 fps=440 q=-0.0 size=N/A time=00:08:50.27 bitrate=N/A speed=18.4x    frame=12993 fps=442 q=-0.0 size=N/A time=00:09:01.91 bitrate=N/A speed=18.4x    frame=13261 fps=444 q=-0.0 size=N/A time=00:09:13.09 bitrate=N/A speed=18.5x    frame=13515 fps=444 q=-0.0 size=N/A time=00:09:23.68 bitrate=N/A speed=18.5x    frame=13723 fps=444 q=-0.0 size=N/A time=00:09:32.36 bitrate=N/A speed=18.5x    frame=13890 fps=442 q=-0.0 size=N/A time=00:09:39.32 bitrate=N/A speed=18.4x    frame=14127 fps=442 q=-0.0 size=N/A time=00:09:49.21 bitrate=N/A speed=18.4x    frame=14367 fps=442 q=-0.0 size=N/A time=00:09:59.22 bitrate=N/A speed=18.4x    frame=14601 fps=442 q=-0.0 size=N/A time=00:10:08.98 bitrate=N/A speed=18.5x    frame=14777 fps=441 q=-0.0 size=N/A time=00:10:16.32 bitrate=N/A speed=18.4x    frame=15029 fps=442 q=-0.0 size=N/A time=00:10:26.83 bitrate=N/A speed=18.4x    frame=15243 fps=441 q=-0.0 size=N/A time=00:10:35.76 bitrate=N/A speed=18.4x    frame=15435 fps=440 q=-0.0 size=N/A time=00:10:43.76 bitrate=N/A speed=18.4x    frame=15660 fps=440 q=-0.0 size=N/A time=00:10:53.15 bitrate=N/A speed=18.4x    frame=15901 fps=441 q=-0.0 size=N/A time=00:11:03.20 bitrate=N/A speed=18.4x    frame=16165 fps=441 q=-0.0 size=N/A time=00:11:14.21 bitrate=N/A speed=18.4x    frame=16401 fps=442 q=-0.0 size=N/A time=00:11:24.05 bitrate=N/A speed=18.4x    frame=16598 fps=441 q=-0.0 size=N/A time=00:11:32.27 bitrate=N/A speed=18.4x    frame=16764 fps=439 q=-0.0 size=N/A time=00:11:39.19 bitrate=N/A speed=18.3x    frame=16994 fps=439 q=-0.0 size=N/A time=00:11:48.79 bitrate=N/A speed=18.3x    frame=17206 fps=439 q=-0.0 size=N/A time=00:11:57.63 bitrate=N/A speed=18.3x    frame=17466 fps=440 q=-0.0 size=N/A time=00:12:08.47 bitrate=N/A speed=18.3x    frame=17638 fps=439 q=-0.0 size=N/A time=00:12:15.65 bitrate=N/A speed=18.3x    frame=17874 fps=439 q=-0.0 size=N/A time=00:12:25.49 bitrate=N/A speed=18.3x    frame=18126 fps=439 q=-0.0 size=N/A time=00:12:36.00 bitrate=N/A speed=18.3x    frame=18374 fps=440 q=-0.0 size=N/A time=00:12:46.34 bitrate=N/A speed=18.4x    frame=18613 fps=440 q=-0.0 size=N/A time=00:12:56.31 bitrate=N/A speed=18.4x    frame=18850 fps=441 q=-0.0 size=N/A time=00:13:06.20 bitrate=N/A speed=18.4x    frame=19105 fps=441 q=-0.0 size=N/A time=00:13:16.83 bitrate=N/A speed=18.4x    frame=19350 fps=442 q=-0.0 size=N/A time=00:13:27.05 bitrate=N/A speed=18.4x    frame=19606 fps=442 q=-0.0 size=N/A time=00:13:37.73 bitrate=N/A speed=18.4x    frame=19878 fps=443 q=-0.0 size=N/A time=00:13:49.07 bitrate=N/A speed=18.5x    frame=20104 fps=443 q=-0.0 size=N/A time=00:13:58.50 bitrate=N/A speed=18.5x    frame=20327 fps=443 q=-0.0 size=N/A time=00:14:07.80 bitrate=N/A speed=18.5x    frame=20581 fps=444 q=-0.0 size=N/A time=00:14:18.39 bitrate=N/A speed=18.5x    frame=20840 fps=444 q=-0.0 size=N/A time=00:14:29.20 bitrate=N/A speed=18.5x    frame=21107 fps=445 q=-0.0 size=N/A time=00:14:40.33 bitrate=N/A speed=18.6x    frame=21360 fps=445 q=-0.0 size=N/A time=00:14:50.89 bitrate=N/A speed=18.6x    frame=21608 fps=446 q=-0.0 size=N/A time=00:15:01.23 bitrate=N/A speed=18.6x    frame=21830 fps=446 q=-0.0 size=N/A time=00:15:10.49 bitrate=N/A speed=18.6x    frame=22058 fps=446 q=-0.0 size=N/A time=00:15:20.00 bitrate=N/A speed=18.6x    frame=22311 fps=446 q=-0.0 size=N/A time=00:15:30.55 bitrate=N/A speed=18.6x    frame=22541 fps=446 q=-0.0 size=N/A time=00:15:40.14 bitrate=N/A speed=18.6x    frame=22716 fps=445 q=-0.0 size=N/A time=00:15:47.44 bitrate=N/A speed=18.6x    frame=22932 fps=445 q=-0.0 size=N/A time=00:15:56.45 bitrate=N/A speed=18.5x    frame=23184 fps=445 q=-0.0 size=N/A time=00:16:06.96 bitrate=N/A speed=18.6x    frame=23430 fps=445 q=-0.0 size=N/A time=00:16:17.22 bitrate=N/A speed=18.6x    frame=23685 fps=446 q=-0.0 size=N/A time=00:16:27.86 bitrate=N/A speed=18.6x    frame=23935 fps=446 q=-0.0 size=N/A time=00:16:38.28 bitrate=N/A speed=18.6x    frame=24198 fps=447 q=-0.0 size=N/A time=00:16:49.25 bitrate=N/A speed=18.6x    frame=24345 fps=445 q=-0.0 size=N/A time=00:16:55.38 bitrate=N/A speed=18.6x    frame=24527 fps=445 q=-0.0 size=N/A time=00:17:02.98 bitrate=N/A speed=18.5x    frame=24784 fps=445 q=-0.0 size=N/A time=00:17:13.69 bitrate=N/A speed=18.6x    frame=25032 fps=445 q=-0.0 size=N/A time=00:17:24.04 bitrate=N/A speed=18.6x    frame=25324 fps=446 q=-0.0 size=N/A time=00:17:36.22 bitrate=N/A speed=18.6x    frame=25577 fps=447 q=-0.0 size=N/A time=00:17:46.77 bitrate=N/A speed=18.6x    frame=25831 fps=447 q=-0.0 size=N/A time=00:17:57.36 bitrate=N/A speed=18.7x    frame=26043 fps=447 q=-0.0 size=N/A time=00:18:06.21 bitrate=N/A speed=18.6x    frame=26286 fps=447 q=-0.0 size=N/A time=00:18:16.34 bitrate=N/A speed=18.7x    frame=26544 fps=448 q=-0.0 size=N/A time=00:18:27.10 bitrate=N/A speed=18.7x    frame=26800 fps=448 q=-0.0 size=N/A time=00:18:37.78 bitrate=N/A speed=18.7x    frame=27057 fps=449 q=-0.0 size=N/A time=00:18:48.50 bitrate=N/A speed=18.7x    frame=27350 fps=449 q=-0.0 size=N/A time=00:19:00.72 bitrate=N/A speed=18.7x    frame=27606 fps=450 q=-0.0 size=N/A time=00:19:11.40 bitrate=N/A speed=18.8x    frame=27852 fps=450 q=-0.0 size=N/A time=00:19:21.66 bitrate=N/A speed=18.8x    frame=28111 fps=451 q=-0.0 size=N/A time=00:19:32.46 bitrate=N/A speed=18.8x    frame=28371 fps=451 q=-0.0 size=N/A time=00:19:43.30 bitrate=N/A speed=18.8x    frame=28645 fps=452 q=-0.0 size=N/A time=00:19:54.73 bitrate=N/A speed=18.8x    frame=28892 fps=452 q=-0.0 size=N/A time=00:20:05.03 bitrate=N/A speed=18.8x    frame=29138 fps=452 q=-0.0 size=N/A time=00:20:15.29 bitrate=N/A speed=18.9x    frame=29429 fps=453 q=-0.0 size=N/A time=00:20:27.43 bitrate=N/A speed=18.9x    frame=29711 fps=454 q=-0.0 size=N/A time=00:20:39.19 bitrate=N/A speed=18.9x    frame=29966 fps=454 q=-0.0 size=N/A time=00:20:49.83 bitrate=N/A speed=18.9x    frame=30228 fps=454 q=-0.0 size=N/A time=00:21:00.75 bitrate=N/A speed=  19x    frame=30486 fps=455 q=-0.0 size=N/A time=00:21:11.52 bitrate=N/A speed=  19x    frame=30765 fps=455 q=-0.0 size=N/A time=00:21:23.15 bitrate=N/A speed=  19x    frame=30958 fps=455 q=-0.0 size=N/A time=00:21:31.20 bitrate=N/A speed=  19x    frame=31143 fps=454 q=-0.0 size=N/A time=00:21:38.92 bitrate=N/A speed=18.9x    frame=31390 fps=454 q=-0.0 size=N/A time=00:21:49.22 bitrate=N/A speed=18.9x    frame=31632 fps=454 q=-0.0 size=N/A time=00:21:59.31 bitrate=N/A speed=  19x    frame=31873 fps=455 q=-0.0 size=N/A time=00:22:09.36 bitrate=N/A speed=  19x    frame=32106 fps=455 q=-0.0 size=N/A time=00:22:19.08 bitrate=N/A speed=  19x    frame=32360 fps=455 q=-0.0 size=N/A time=00:22:29.68 bitrate=N/A speed=  19x    frame=32624 fps=455 q=-0.0 size=N/A time=00:22:40.69 bitrate=N/A speed=  19x    frame=32876 fps=455 q=-0.0 size=N/A time=00:22:51.20 bitrate=N/A speed=  19x    frame=33095 fps=455 q=-0.0 size=N/A time=00:23:00.33 bitrate=N/A speed=  19x    frame=33332 fps=455 q=-0.0 size=N/A time=00:23:10.22 bitrate=N/A speed=  19x    [Parsed_ssim_10 @ 000001b103ceb840] SSIM Y:0.993230 (21.694359) U:0.994622 (22.693786) V:0.994677 (22.738375) All:0.993703 (22.008945)
[out#0/null @ 000001b177703d40] video:14394KiB audio:261984KiB subtitle:0KiB other streams:0KiB global headers:0KiB muxing overhead: unknown
frame=33498 fps=455 q=-0.0 Lsize=N/A time=00:23:17.14 bitrate=N/A speed=  19x    
